<svg width="20" height="20" viewBox="0 0 20 20" fill="none" xmlns="http://www.w3.org/2000/svg">
<g id="Icon / at">
<path id="Vector" d="M9.99996 1.66663C5.41663 1.66663 1.66663 5.41663 1.66663 9.99996C1.66663 14.5833 5.41663 18.3333 9.99996 18.3333C11.5 18.3333 12.9166 17.9166 14.1666 17.25C14.5833 17 14.6666 16.5 14.5 16.0833C14.25 15.6666 13.75 15.5833 13.3333 15.75C10.1666 17.5833 6.08329 16.5 4.24996 13.3333C2.41663 10.1666 3.49996 6.08329 6.66663 4.24996C9.83329 2.41663 13.9166 3.49996 15.75 6.66663C16.3333 7.66663 16.6666 8.83329 16.6666 9.99996V10.6666C16.6666 11.5 16 12.1666 15.1666 12.1666C14.3333 12.1666 13.6666 11.5 13.6666 10.6666V7.08329C13.6666 6.58329 13.3333 6.24996 12.8333 6.24996C12.4166 6.24996 12.0833 6.49996 12 6.91663C10.3333 5.74996 7.91663 6.16663 6.74996 7.83329C5.58329 9.49996 5.99996 11.9166 7.66663 13.0833C9.24996 14.1666 11.3333 13.9166 12.5833 12.5C13.6666 13.8333 15.5833 14.0833 16.9166 13.0833C17.6666 12.5 18.1666 11.5833 18.1666 10.5833V9.99996C18.3333 5.41663 14.5833 1.66663 9.99996 1.66663ZM9.99996 12.0833C8.83329 12.0833 7.91663 11.1666 7.91663 9.99996C7.91663 8.83329 8.83329 7.91663 9.99996 7.91663C11.1666 7.91663 12.0833 8.83329 12.0833 9.99996C12.0833 11.1666 11.1666 12.0833 9.99996 12.0833Z" fill="#253D4E"/>
</g>
</svg>
