<svg width="31" height="30" viewBox="0 0 31 30" fill="none" xmlns="http://www.w3.org/2000/svg">
<circle cx="15.5" cy="15" r="12.5" fill="#2A3342"/>
<path d="M15.5 8.85134C17.5026 8.85134 17.7398 8.859 18.5306 8.89508C19.2619 8.92842 19.659 9.0506 19.9233 9.15331C20.2734 9.28937 20.5232 9.45189 20.7856 9.71432C21.0481 9.97678 21.2106 10.2266 21.3467 10.5767C21.4494 10.841 21.5716 11.2381 21.6049 11.9693C21.641 12.7602 21.6486 12.9974 21.6486 15C21.6486 17.0025 21.641 17.2398 21.6049 18.0306C21.5716 18.7618 21.4494 19.159 21.3467 19.4232C21.2106 19.7733 21.0481 20.0232 20.7857 20.2856C20.5232 20.5481 20.2734 20.7106 19.9233 20.8466C19.659 20.9493 19.2619 21.0715 18.5306 21.1049C17.7399 21.141 17.5027 21.1486 15.5 21.1486C13.4973 21.1486 13.2601 21.141 12.4694 21.1049C11.7381 21.0715 11.341 20.9493 11.0767 20.8466C10.7266 20.7106 10.4768 20.5481 10.2144 20.2856C9.95193 20.0232 9.78937 19.7733 9.65332 19.4232C9.55061 19.159 9.42843 18.7618 9.39508 18.0306C9.359 17.2398 9.35135 17.0025 9.35135 15C9.35135 12.9974 9.359 12.7602 9.39508 11.9693C9.42843 11.2381 9.55061 10.841 9.65332 10.5767C9.78937 10.2266 9.9519 9.97678 10.2144 9.71435C10.4768 9.45189 10.7266 9.28937 11.0767 9.15331C11.341 9.0506 11.7381 8.92842 12.4694 8.89508C13.2602 8.859 13.4974 8.85134 15.5 8.85134ZM15.5 7.5C13.4631 7.5 13.2077 7.50863 12.4078 7.54513C11.6095 7.58154 11.0643 7.70834 10.5872 7.89372C10.094 8.08539 9.67577 8.34184 9.25879 8.75879C8.84184 9.17576 8.58539 9.59402 8.39376 10.0872C8.20834 10.5643 8.08154 11.1095 8.04513 11.9077C8.00863 12.7077 8 12.9631 8 15C8 17.0368 8.00863 17.2923 8.04513 18.0922C8.08154 18.8905 8.20834 19.4357 8.39376 19.9127C8.58539 20.4059 8.84184 20.8242 9.25879 21.2412C9.67577 21.6581 10.094 21.9146 10.5872 22.1062C11.0643 22.2916 11.6095 22.4184 12.4078 22.4548C13.2077 22.4913 13.4631 22.4999 15.5 22.4999C17.5369 22.4999 17.7923 22.4913 18.5922 22.4548C19.3905 22.4184 19.9357 22.2916 20.4128 22.1062C20.906 21.9146 21.3242 21.6581 21.7412 21.2412C22.1582 20.8242 22.4146 20.4059 22.6063 19.9127C22.7917 19.4357 22.9185 18.8905 22.9549 18.0922C22.9914 17.2923 23 17.0368 23 15C23 12.9631 22.9914 12.7077 22.9549 11.9077C22.9185 11.1095 22.7917 10.5643 22.6063 10.0872C22.4146 9.59402 22.1582 9.17576 21.7412 8.75879C21.3242 8.34184 20.906 8.08539 20.4128 7.89372C19.9357 7.70834 19.3905 7.58154 18.5922 7.54513C17.7923 7.50863 17.5369 7.5 15.5 7.5Z" fill="white"/>
<path d="M15.5035 11.1521C13.3765 11.1521 11.6522 12.8764 11.6522 15.0034C11.6522 17.1305 13.3765 18.8548 15.5035 18.8548C17.6306 18.8548 19.3549 17.1305 19.3549 15.0034C19.3549 12.8764 17.6306 11.1521 15.5035 11.1521ZM15.5035 17.5034C14.1228 17.5034 13.0035 16.3842 13.0035 15.0034C13.0035 13.6227 14.1228 12.5034 15.5035 12.5034C16.8842 12.5034 18.0035 13.6227 18.0035 15.0034C18.0035 16.3842 16.8842 17.5034 15.5035 17.5034Z" fill="white"/>
<path d="M20.4068 10.9975C20.4068 11.4946 20.0038 11.8975 19.5067 11.8975C19.0097 11.8975 18.6068 11.4946 18.6068 10.9975C18.6068 10.5005 19.0097 10.0975 19.5067 10.0975C20.0038 10.0975 20.4068 10.5005 20.4068 10.9975Z" fill="white"/>
</svg>
