<svg width="31" height="30" viewBox="0 0 31 30" fill="none" xmlns="http://www.w3.org/2000/svg">
<circle cx="15.5" cy="15" r="12.5" fill="#2A3342"/>
<path fill-rule="evenodd" clip-rule="evenodd" d="M12.2342 8.92743C12.2342 9.70561 11.6417 10.3354 10.7151 10.3354C9.8246 10.3354 9.23208 9.70561 9.25041 8.92743C9.23208 8.11143 9.82458 7.5 10.7328 7.5C11.6417 7.5 12.2165 8.11143 12.2342 8.92743ZM9.32491 20.5119V11.4476H12.142V20.5113H9.32491V20.5119Z" fill="white"/>
<path fill-rule="evenodd" clip-rule="evenodd" d="M14.3999 14.3403C14.3999 13.2097 14.3626 12.2459 14.3254 11.4488H16.7722L16.9023 12.6906H16.9579C17.3287 12.1158 18.2553 11.2454 19.7566 11.2454C21.6098 11.2454 23 12.4688 23 15.1368V20.5131H20.183V15.4898C20.183 14.3214 19.7755 13.5249 18.7561 13.5249C17.9773 13.5249 17.5143 14.0624 17.3292 14.581C17.2547 14.7667 17.2181 15.0257 17.2181 15.2858V20.5131H14.401V14.3403H14.3999Z" fill="white"/>
</svg>
