<svg width="25" height="24" viewBox="0 0 25 24" fill="none" xmlns="http://www.w3.org/2000/svg">
<g id="li:search">
<path id="Vector (Stroke)" fill-rule="evenodd" clip-rule="evenodd" d="M11.5 4C7.63401 4 4.5 7.13401 4.5 11C4.5 14.866 7.63401 18 11.5 18C15.366 18 18.5 14.866 18.5 11C18.5 7.13401 15.366 4 11.5 4ZM2.5 11C2.5 6.02944 6.52944 2 11.5 2C16.4706 2 20.5 6.02944 20.5 11C20.5 15.9706 16.4706 20 11.5 20C6.52944 20 2.5 15.9706 2.5 11Z" fill="white"/>
<path id="Vector (Stroke)_2" fill-rule="evenodd" clip-rule="evenodd" d="M16.4429 15.9429C16.8334 15.5524 17.4666 15.5524 17.8571 15.9429L22.2071 20.2929C22.5977 20.6834 22.5977 21.3166 22.2071 21.7071C21.8166 22.0977 21.1834 22.0977 20.7929 21.7071L16.4429 17.3571C16.0524 16.9666 16.0524 16.3334 16.4429 15.9429Z" fill="white"/>
</g>
</svg>
