<svg width="14" height="14" viewBox="0 0 14 14" fill="none" xmlns="http://www.w3.org/2000/svg">
<g id="Star">
<path id="Star_2" d="M10.7901 8.54675C10.6174 8.71408 10.5381 8.95608 10.5774 9.19341L11.1701 12.4734C11.2201 12.7514 11.1027 13.0327 10.8701 13.1934C10.6421 13.3601 10.3387 13.3801 10.0901 13.2467L7.13741 11.7067C7.03474 11.6521 6.92074 11.6227 6.80407 11.6194H6.62341C6.56074 11.6287 6.49941 11.6487 6.44341 11.6794L3.49007 13.2267C3.34407 13.3001 3.17874 13.3261 3.01674 13.3001C2.62207 13.2254 2.35874 12.8494 2.42341 12.4527L3.01674 9.17275C3.05607 8.93341 2.97674 8.69008 2.80407 8.52008L0.396741 6.18675C0.195407 5.99141 0.125407 5.69808 0.217407 5.43341C0.306741 5.16941 0.534741 4.97675 0.810074 4.93341L4.12341 4.45275C4.37541 4.42675 4.59674 4.27341 4.71007 4.04675L6.17007 1.05341C6.20474 0.986748 6.24941 0.925415 6.30341 0.873415L6.36341 0.826748C6.39474 0.792081 6.43074 0.763415 6.47074 0.740081L6.54341 0.713415L6.65674 0.666748H6.93741C7.18807 0.692748 7.40874 0.842748 7.52407 1.06675L9.00341 4.04675C9.11007 4.26475 9.31741 4.41608 9.55674 4.45275L12.8701 4.93341C13.1501 4.97341 13.3841 5.16675 13.4767 5.43341C13.5641 5.70075 13.4887 5.99408 13.2834 6.18675L10.7901 8.54675Z" fill="#FDC040"/>
</g>
</svg>
