<svg width="31" height="30" viewBox="0 0 31 30" fill="none" xmlns="http://www.w3.org/2000/svg">
<circle cx="15.5" cy="15" r="12.5" fill="#2A3342"/>
<path fill-rule="evenodd" clip-rule="evenodd" d="M23 10.1929C22.4485 10.4379 21.8551 10.6029 21.2326 10.6774C21.8681 10.2964 22.356 9.69344 22.5855 8.97498C21.9916 9.32796 21.3321 9.58344 20.6317 9.72194C20.0702 9.12398 19.2697 8.75 18.3853 8.75C16.6859 8.75 15.308 10.1279 15.308 11.8273C15.308 12.0683 15.3355 12.3033 15.388 12.5287C12.8302 12.4008 10.5628 11.1753 9.04493 9.31346C8.77995 9.76793 8.62846 10.2964 8.62846 10.8604C8.62846 11.9278 9.17092 12.8697 9.99737 13.4217C9.4924 13.4057 9.01843 13.2672 8.60296 13.0367V13.0752C8.60296 14.5666 9.66439 15.81 11.0713 16.0935C10.8133 16.1635 10.5413 16.2015 10.2608 16.2015C10.0624 16.2015 9.86937 16.182 9.68139 16.146C10.0729 17.3684 11.2098 18.2584 12.5562 18.2834C11.5033 19.1083 10.1764 19.6008 8.73445 19.6008C8.48547 19.6008 8.24048 19.5863 8 19.5573C9.36191 20.4302 10.9793 20.9402 12.7172 20.9402C18.3773 20.9402 21.4726 16.251 21.4726 12.1848C21.4726 12.0513 21.4701 11.9183 21.4636 11.7868C22.0656 11.3518 22.5875 10.8099 23 10.1929Z" fill="white"/>
</svg>
